<?xml version="1.0" encoding="UTF-8"?>
<svg version="1.1" viewBox="0 0 120 120" xmlns="http://www.w3.org/2000/svg">
<g fill-rule="evenodd">
<path d="m60 0c33.137 0 60 26.863 60 60s-26.863 60-60 60-60-26.863-60-60 26.863-60 60-60z" fill="#dadce0"/>
<path d="m69.533 27.008c-0.47605-0.02886-0.96361 0.0302-1.4434 0.18945l-8.0898 2.7168-8.1289-2.7168-0.19141-0.058594c-1.928-0.533-3.953 0.50972-4.668 2.3867l-8.8672 23.475h43.711l-8.9062-23.475-0.07617-0.18555c-0.6-1.365-1.9117-2.2455-3.3398-2.332zm-44.533 29.992v4h70v-4zm17.5 7.8379c-7.506 0-13.611 6.092-13.611 13.582 0 7.489 6.1053 13.58 13.611 13.58 7.156 0 12.95-5.5091 13.494-12.494 1.167-0.815 4.2397-2.3298 8.0117 0.07617 0.622 6.946 6.3771 12.418 13.494 12.418 7.506 0 13.611-6.0911 13.611-13.58 0-7.49-6.1053-13.582-13.611-13.582-6.456 0-11.823 4.5016-13.223 10.516-3.267-1.397-6.2987-1.0091-8.5547-0.03906-1.439-6.014-6.8057-10.477-13.223-10.477zm0 3.8789c5.367 0 9.7227 4.3481 9.7227 9.7031s-4.3557 9.6992-9.7227 9.6992-9.7227-4.3442-9.7227-9.6992 4.3557-9.7012 9.7227-9.7012zm35 0c5.367 0 9.7227 4.3481 9.7227 9.7031s-4.3557 9.6992-9.7227 9.6992-9.7227-4.3442-9.7227-9.6992 4.3557-9.7012 9.7227-9.7012z" fill="#272727" stroke-width="0"/>
</g>
</svg>
